<svg version="1.1" id="Layer_1" xmlns:x="ns_extend;" xmlns:i="ns_ai;" xmlns:graph="ns_graphs;" xmlns="http://www.w3.org/2000/svg" xmlns:xlink="http://www.w3.org/1999/xlink" x="0px" y="0px" viewBox="0 0 300 72" style="enable-background:new 0 0 300 72;" xml:space="preserve">
 <style type="text/css">
  .st0{filter:url(#Adobe_OpacityMaskFilter);}
	.st1{fill-rule:evenodd;clip-rule:evenodd;fill:#FFFFFF;}
	.st2{mask:url(#mask-2_1_);fill-rule:evenodd;clip-rule:evenodd;fill:#FFFFFF;}
	.st3{filter:url(#Adobe_OpacityMaskFilter_1_);}
	.st4{mask:url(#mask-2_2_);fill-rule:evenodd;clip-rule:evenodd;fill:#1414D2;}
	.st5{fill:#1414D2;}
 </style>
 <metadata>
  <sfw xmlns="ns_sfw;">
   <slices>
   </slices>
   <sliceSourceBounds bottomLeftOrigin="true" height="71.9" width="299.4" x="0" y="0.1">
   </sliceSourceBounds>
  </sfw>
 </metadata>
 <g id="Logos_x2F_United-Logo_x5F_Rebrand_x5F_Large">
  <g id="Group">
   <g id="united_globe_4p_h_rgb_r_21Apr2022">
    <g id="Clip-2">
    </g>
    <defs>
     <filter id="Adobe_OpacityMaskFilter" filterUnits="userSpaceOnUse" x="0" y="9.2" width="63" height="62.7">
      <feColorMatrix type="matrix" values="1 0 0 0 0  0 1 0 0 0  0 0 1 0 0  0 0 0 1 0">
      </feColorMatrix>
     </filter>
    </defs>
    <mask maskUnits="userSpaceOnUse" x="0" y="9.2" width="63" height="62.7" id="mask-2_1_">
     <g class="st0">
      <polygon id="path-1_1_" class="st1" points="0,0 72,0 72,72 0,72 					">
      </polygon>
     </g>
    </mask>
    <path id="Fill-1" class="st2" d="M15.9,9.2C10.5,9.2,5.1,10.1,0,12L0,12v1.9c0.3-0.1,0.8-0.3,1.6-0.5c0.4-0.1,0.8-0.2,1.2-0.2
				c0.1,0,0.3,0,0.4-0.1c5-0.7,9.3,0.3,11.9,3.3c5.7,6.5,1,19.8-10.5,29.8c-1.5,1.3-3,2.4-4.5,3.5c0,0-0.1,0.1-0.1,0.1v3.2
				c0.5-0.3,0.9-0.6,1.4-1C2,53,6.1,59.6,6.2,59.7c0.3-0.2,1.2-0.8,2.3-1.5c1.2-0.9,2.7-1.9,4.1-3.1c0.1-0.1,0.1-0.1,0.2-0.2
				l-6.3-7.3c0.6-0.6,2.8-2.8,4.5-4.8c0.4,0.3,5.7,4.4,7.8,6.3c1.7-1.8,3.2-3.7,4.5-5.6c-2.9-1.9-8.9-5.4-8.9-5.4
				c1-1.6,1.9-3.2,2.6-4.8c0,0,7,2.8,9.9,4.2c0.8-1.5,1.4-3.1,1.9-4.6c0.1-0.2,0.1-0.5,0.2-0.7c-3.6-1.4-9.9-3-10.5-3.1
				c0.4-1.4,0.6-2.7,0.7-4c5.2,0.5,9.9,1.7,10.8,1.9c0.1-1.5,0.1-2.9-0.1-4.2c-5.7-1-10.3-1-10.9-1c-0.1-1-0.4-2-0.7-2.9
				c0,0,5.1-0.4,10.4,0.2c-0.3-0.6-0.6-1.2-1-1.7c-0.3-0.4-0.9-1.1-0.9-1.1s-4.5-0.3-9.7,0.4c-0.5-0.7-1.1-1.3-1.6-1.8
				c0.1,0,4.1-0.9,8.8-0.9c-1.3-0.9-2.7-1.5-2.7-1.5v0c-3.7,0.1-7.6,1.1-7.9,1.2c-1.1-0.6-1.9-0.9-2-0.9c0,0,0,0,0,0c0,0,0,0,0,0
				c0.3-0.1,3.1-1,5.2-1.2c0,0,0,0,0,0c-2.8-0.4-6.7,0.5-7.2,0.6c-0.6-0.1-1.5-0.2-2.1-0.3c0,0,2.1-0.6,4.9-1
				c2.5-0.4,11-1.4,16.5,5.9c5.1,6.9,3.3,17.7-3.7,28c-1.8,2.8-4,5.5-6.6,8.1c-2.1,2.2-4.3,4.1-6.4,5.8c-3.2,2.6-6.7,4.8-10.2,6.6
				c-0.7,0.4-1.5,0.8-2.2,1.1v3.3c6-2.8,9.5-5.5,9.5-5.5l5,7.1c0,0,3.9-2.4,7.8-5.7l0,0c0,0,0,0,0,0l-6-6.8c0,0,0,0,0,0
				c2.3-2,4.4-4.2,6.3-6.4c0,0,6.2,5.5,6.9,6.2c2-2.2,3.8-4.6,5.4-7c-3.2-2.6-7.5-5.5-7.5-5.5l0,0v0l0,0c0,0,2.5-4.1,3.6-6.6
				c0,0,4.1,2.2,8,4.8c1-2.1,1.7-4.3,2.3-6.6c-2.6-1.5-8.2-4.1-8.2-4.1c0.5-1.9,0.8-3.8,0.9-5.6c0,0,4.1,1.3,8.3,3.4
				c0.1-1.8,0-3.5-0.4-5.2c-3.5-1.7-8.2-2.8-8.2-2.8c-0.2-1.4-0.7-2.8-1.2-4c0,0,4.3,0.8,8,2.3c-0.9-2.1-2.1-3.3-2.1-3.3
				c-2.4-1.3-7.9-2.3-7.9-2.3c-0.6-0.8-1.3-1.5-2-2.1c1.7,0.2,4.4,0.9,4.4,0.9c-3-1.5-6.3-2.3-6.3-2.3c0,0-0.7-0.4-1.5-0.9
				c0,0,8.3,1.7,12.8,5.1c0.4,0.3,0.8,0.7,1.2,1c0.5,0.4,0.8,0.9,1.2,1.4c9,12.3,1.2,35.9-20.6,52.5h8.1c-0.4-0.5-1.5-1.7-1.7-1.8
				c2.6-2.4,5-4.9,7.2-7.6l5.4,5.4l0,0c2.1-2.4,4.1-5,5.8-7.7c0,0-2.8-2.7-5.9-5.4c2.4-3.9,3.9-7.8,3.9-7.8c0.2,0.2,3.2,2.4,6.2,5.2
				c1.5-3.2,2.4-7.3,2.4-7.3c-3.1-2.9-6.4-4.9-6.4-4.9c0.5-2.2,0.8-4.4,0.9-6.6c0,0,3.4,2,6.4,4.6c0-1.9-0.1-3.9-0.5-5.7
				c-2.9-2.5-6.2-4.2-6.2-4.2c0,0-0.3-2.1-1.4-4.7c0,0,0,0,0,0c0.2,0.1,1.8,0.9,4.5,2.9c-2.1-2.8-5.8-5.5-5.8-5.5
				c-0.4-0.6-0.8-1.2-1.2-1.8c3,2.1,5.8,4.5,8.2,7.2c0.9,1.1,1.7,2.6,2.4,4.2c0.2,0.5,0.3,0.9,0.5,1.4c2,6.8,0.8,14.4-1.5,20.6
				c-2.6,7.2-7,13.9-12.1,19.6h9.6c0.9-1.3,1.8-2.6,2.6-4c-0.6-1-3.6-4.4-3.6-4.4c1.6-2.6,3.1-5.5,4.2-8.3c0,0,2,2.2,3.5,4.4
				c1.5-3.6,2.2-7.4,2.2-7.4c-1-1.7-3.3-4.4-3.3-4.4c0.5-2.3,0.8-4.6,0.8-7c1.2,1.4,2.7,3.6,2.7,3.6s0,0,0,0c-0.3-4.3-2.5-8.2-3-9
				c0-0.1,0-0.2,0-0.3c-0.3-1.5-0.8-3.1-1.1-4c2.5,3.7,4.1,7.8,4.1,7.8c1,2.7,1.6,6,1.6,9.6c0,1.9-0.4,12-8.1,23.4h2.4
				c1.4-2.7,3-6,4.1-8.8c0,0,0,0,0,0c0,0.1,0.6,1.5,1,2.9c0.8-2.9,1.4-5.9,1.7-9l0,0c-0.1-0.4-0.3-1-0.4-1.4c0,0,0.5-2.6,0.7-5.6
				c0.3,2.1,0.4,4.1,0.4,6.3c0,3.7-0.4,7.2-1.3,10.7c-0.4,1.7-1,3.4-1.5,5h2.1c1.7-5,2.6-10.2,2.6-15.5C63,30.4,41.9,9.2,15.9,9.2z
				 M0,40.3v6.3c1.1-0.7,2.2-1.5,3.3-2.4L0,40.3z M1.5,14.3C1,14.6,0.5,15,0,15.4v1.5c1.3-1,3-2.2,4.4-3C3.5,14,2.5,14.1,1.5,14.3z
				 M5.7,39C4,37.8,0,35,0,35v-3.4c2.9-4.2,3.3-8.9,0.8-11.3c-0.2-0.2-0.5-0.4-0.8-0.6V18l0,0c0,0,3.7-2.9,6.6-4.2
				c0.7,0.1,1.4,0.1,2,0.3c-4.4,1.8-7.6,4.1-7.8,4.3c0.4,0.3,0.9,0.6,0.9,0.6c0.1,0,4.3-2.7,8.9-4.3c0.6,0.3,1.2,0.6,1.8,1.1
				c-5.1,1.4-9.9,4-9.9,4c0.3,0.3,0.5,0.7,0.7,1c0,0,0.1,0,0.1,0C8.5,18.7,14,17.5,14,17.5c0.4,0.6,0.8,1.2,1.1,2
				c0,0-4.9,0.6-11.3,2.6C4,23,4.1,23.6,4.1,23.6c0,0,6-1.3,11.5-1.5c0.1,0.9,0,1.9-0.1,2.9c-3.3-0.2-11.1,0.2-11.4,0.3
				c0,0,0,1.1-0.3,2.2c0,0,5.7,0.2,10.9,1.1c-0.4,1.2-0.9,2.5-1.5,3.7c-3.4-1-8.7-2.3-10.1-2.6c-0.4,0.9-0.8,1.8-1.4,2.6
				c0,0,6.4,2.8,8.8,4.2h0l0,0c-1.1,1.6-3.2,3.8-3.2,3.8C6.9,39.9,6.3,39.4,5.7,39L5.7,39z">
    </path>
    <defs>
     <filter id="Adobe_OpacityMaskFilter_1_" filterUnits="userSpaceOnUse" x="0" y="0" width="71.9" height="71.9">
      <feColorMatrix type="matrix" values="1 0 0 0 0  0 1 0 0 0  0 0 1 0 0  0 0 0 1 0">
      </feColorMatrix>
     </filter>
    </defs>
    <mask maskUnits="userSpaceOnUse" x="0" y="0" width="71.9" height="71.9" id="mask-2_2_">
     <g class="st3">
      <polygon id="path-1_2_" class="st1" points="0,0 72,0 72,72 0,72 					">
      </polygon>
     </g>
    </mask>
    <path id="Fill-3" class="st4" d="M15.9,9.2c25.9,0,47,21.2,47,47.2c0,5.3-0.9,10.5-2.6,15.5h11.5V0H0v12L0,12
				C5.1,10.1,10.5,9.2,15.9,9.2z M0,31.6c2.9-4.2,3.3-8.9,0.8-11.3c-0.2-0.2-0.5-0.4-0.8-0.6V31.6z M15,16.4c-2.6-3-6.9-4-11.9-3.3
				c-0.1,0-0.3,0-0.4,0.1c-0.4,0.1-0.8,0.1-1.2,0.2c-0.8,0.2-1.3,0.4-1.6,0.5v1.5c0.5-0.4,1-0.8,1.5-1.1c1-0.2,2-0.3,2.9-0.4
				c-1.4,0.8-3.1,1.9-4.4,3V18l0,0c0,0,3.7-2.9,6.6-4.2c0.7,0.1,1.4,0.1,2,0.3c-4.4,1.8-7.6,4.1-7.8,4.3c0.4,0.3,0.9,0.6,0.9,0.6
				c0.1,0,4.3-2.7,8.9-4.3c0.6,0.3,1.2,0.6,1.8,1.1c-5.1,1.4-9.9,4-9.9,4c0.3,0.3,0.5,0.7,0.7,1c0,0,0.1,0,0.1,0
				C8.5,18.7,14,17.5,14,17.5c0.4,0.6,0.8,1.2,1.1,2c0,0-4.9,0.6-11.3,2.6C4,23,4.1,23.6,4.1,23.6c0,0,6-1.3,11.5-1.5
				c0.1,0.9,0,1.9-0.1,2.9c-3.3-0.2-11.1,0.2-11.4,0.3c0,0,0,1.1-0.3,2.2c0,0,5.7,0.2,10.9,1.1c-0.4,1.2-0.9,2.5-1.5,3.7
				c-3.4-1-8.7-2.3-10.1-2.6c-0.4,0.9-0.8,1.8-1.4,2.6c0,0,6.4,2.8,8.8,4.2h0l0,0c-1.1,1.6-3.2,3.8-3.2,3.8
				c-0.6-0.5-1.2-0.9-1.7-1.3C4,37.8,0,35,0,35v5.3l3.3,3.9c-1.1,0.9-2.2,1.7-3.3,2.4v3.2c0,0,0.1-0.1,0.1-0.1c1.5-1,3-2.2,4.5-3.5
				C16,36.2,20.7,22.9,15,16.4z M29.1,17c-5.4-7.3-13.9-6.3-16.5-5.9c-2.8,0.4-4.9,1-4.9,1c0.6,0.1,1.5,0.2,2.1,0.3
				c0.5-0.1,4.4-1,7.2-0.6c0,0,0,0,0,0c-2.1,0.2-4.9,1.1-5.2,1.2c0,0,0,0,0,0c0,0,0,0,0,0c0.1,0,0.9,0.3,2,0.9
				c0.3-0.1,4.2-1.1,7.9-1.2v0c0,0,1.4,0.6,2.7,1.5c-4.8,0-8.7,0.9-8.8,0.9c0.6,0.5,1.1,1.1,1.6,1.8c5.2-0.8,9.7-0.4,9.7-0.4
				s0.6,0.7,0.9,1.1c0.3,0.5,0.7,1.1,1,1.7c-5.3-0.6-10.4-0.2-10.4-0.2C18.7,20,18.9,21,19,22c0.6,0,5.1,0,10.9,1
				c0.2,1.3,0.2,2.7,0.1,4.2c-1-0.3-5.7-1.4-10.8-1.9c-0.1,1.3-0.3,2.6-0.7,4c0.6,0.1,6.9,1.7,10.5,3.1c-0.1,0.2-0.1,0.4-0.2,0.7
				c-0.5,1.5-1.1,3.1-1.9,4.6c-2.9-1.4-9.9-4.2-9.9-4.2c-0.7,1.6-1.6,3.2-2.6,4.8c0,0,6,3.4,8.9,5.4c-1.3,1.9-2.9,3.8-4.5,5.6
				c-2.1-1.9-7.4-6-7.8-6.3c-1.7,2-3.8,4.2-4.5,4.8l6.3,7.3c-0.1,0.1-0.1,0.1-0.2,0.2c-1.4,1.1-2.8,2.2-4.1,3.1
				c-1.1,0.7-2,1.3-2.3,1.5C6.1,59.6,2,53,1.4,51.9c-0.5,0.3-0.9,0.7-1.4,1v13.6c0.7-0.4,1.5-0.7,2.2-1.1c3.6-1.8,7-4,10.2-6.6
				c2.1-1.6,4.2-3.6,6.4-5.8c2.5-2.6,4.7-5.3,6.6-8.1C32.4,34.6,34.3,23.9,29.1,17z M40.2,19.4c-0.4-0.5-0.7-1-1.2-1.4
				c-0.4-0.4-0.8-0.7-1.2-1C33.3,13.6,25,11.9,25,11.9c0.8,0.4,1.4,0.9,1.5,0.9c0,0,3.4,0.8,6.3,2.3c0,0-2.7-0.6-4.4-0.9
				c0.7,0.6,1.4,1.4,2,2.1c0,0,5.5,1,7.9,2.3c0,0,1.2,1.2,2.1,3.3c-3.8-1.5-8-2.3-8-2.3c0.6,1.3,1,2.6,1.2,4c0,0,4.7,1.1,8.2,2.8
				c0.3,1.7,0.4,3.4,0.4,5.2c-4.2-2.1-8.3-3.4-8.3-3.4c-0.1,1.8-0.4,3.7-0.9,5.6c0,0,5.7,2.5,8.2,4.1c-0.6,2.3-1.4,4.5-2.3,6.6
				c-3.9-2.5-8-4.8-8-4.8c-1,2.5-3.6,6.6-3.6,6.6l0,0v0l0,0c0.1,0,4.3,3,7.5,5.5c-1.6,2.4-3.4,4.8-5.4,7c-0.7-0.7-6.9-6.2-6.9-6.2
				c-1.9,2.2-4,4.3-6.3,6.4c0,0,0,0,0,0l6,6.8c0,0,0,0,0,0l0,0c-3.9,3.2-7.8,5.7-7.8,5.7l-5-7.1c0,0-3.5,2.7-9.5,5.5v2.1h19.6
				C41.4,55.4,49.2,31.7,40.2,19.4z M38.8,71.9c5.1-5.7,9.5-12.4,12.1-19.6c2.3-6.2,3.5-13.9,1.5-20.6c-0.1-0.4-0.3-0.9-0.5-1.4
				c-0.6-1.7-1.5-3.1-2.4-4.2c-2.4-2.7-5.2-5.2-8.2-7.2c0.4,0.6,0.9,1.2,1.2,1.8c0,0,3.7,2.7,5.8,5.5c-2.7-2-4.3-2.7-4.5-2.9
				c0,0,0,0,0,0c1,2.6,1.4,4.7,1.4,4.7c0,0,3.3,1.7,6.2,4.2c0.4,1.9,0.6,3.8,0.5,5.7c-3-2.6-6.4-4.6-6.4-4.6
				c-0.1,2.2-0.4,4.4-0.9,6.6c0,0,3.2,2,6.4,4.9c0,0-0.9,4.1-2.4,7.3c-3-2.8-6-5-6.2-5.2c0,0-1.5,3.9-3.9,7.8c3,2.6,5.9,5.4,5.9,5.4
				c-1.7,2.7-3.7,5.3-5.8,7.7l0,0l-5.4-5.4c-2.2,2.7-4.6,5.3-7.2,7.6c0.1,0.1,1.2,1.3,1.7,1.8H38.8z M48.5,71.9h2.7
				c7.7-11.4,8.1-21.4,8.1-23.4c0-3.6-0.6-7-1.6-9.6c0,0-1.6-4.1-4.1-7.8c0.3,0.8,0.8,2.5,1.1,4c0,0.1,0,0.2,0,0.3
				c0.5,0.8,2.7,4.7,3,9c0,0,0,0,0,0s-1.6-2.2-2.7-3.6c0,2.4-0.3,4.7-0.8,7c0,0,2.3,2.7,3.3,4.4c0,0-0.7,3.8-2.2,7.4
				c-1.5-2.2-3.5-4.4-3.5-4.4c-1.1,2.8-2.6,5.7-4.2,8.3c0,0,2.9,3.4,3.6,4.4C50.2,69.4,49.4,70.6,48.5,71.9z M53.6,71.9
				c1.4-2.7,3-6,4.1-8.8c0,0,0,0,0,0c0,0.1,0.6,1.5,1,2.9c0.8-2.9,1.4-5.9,1.7-9l0,0c-0.1-0.4-0.3-1-0.4-1.4c0,0,0.5-2.6,0.7-5.6
				c0.3,2.1,0.4,4.1,0.4,6.3c0,3.7-0.4,7.2-1.3,10.7c-0.4,1.7-1,3.4-1.5,5H53.6L53.6,71.9z">
    </path>
   </g>
   <path id="Shape" class="st5" d="M118,36.5V25h6.7v11.1c0,4.3,2,6.1,5.9,6.1s5.9-1.8,5.9-6.1V25h6.7v11.5c0,8-4,11.5-12.6,11.5
			S118,44.5,118,36.5L118,36.5z M173.2,38.1L160.8,25h-6.6v22.5h6.2V33.2l13.5,14.2h5.4V25h-6.2V38.1L173.2,38.1z M191,47.5h6.7V25
			H191V47.5L191,47.5z M273.5,25h12.8c8.9,0,13,3.9,13,11.2s-4.1,11.2-13,11.2h-12.8V25L273.5,25z M280.2,41.4h5.9
			c4.3,0,6.3-1.6,6.3-5.2c0-3.6-2-5.2-6.3-5.2h-5.9V41.4z M248,38.6h13.8v-4.8H248v-3.3h14.9V25h-21.6v22.5H263V42h-15L248,38.6
			L248,38.6z M207.5,31h8.6v16.4h6.7V31h8.6v-6h-24L207.5,31L207.5,31z">
   </path>
  </g>
 </g>
</svg>